<?xml version="1.0" standalone="no"?>
<!DOCTYPE svg PUBLIC "-//W3C//DTD SVG 20010904//EN"
 "http://www.w3.org/TR/2001/REC-SVG-20010904/DTD/svg10.dtd">
<svg version="1.0" xmlns="http://www.w3.org/2000/svg"
 width="512.000000pt" height="512.000000pt" viewBox="0 0 512.000000 512.000000"
 preserveAspectRatio="xMidYMid meet">

<g transform="translate(0.000000,512.000000) scale(0.100000,-0.100000)"
fill="#000000" stroke="none">
<path d="M1820 4345 c-73 -21 -129 -55 -184 -113 -94 -98 -1118 -1437 -1150
-1502 -29 -60 -31 -73 -31 -170 0 -97 2 -110 31 -170 32 -65 1056 -1404 1150
-1502 115 -121 285 -158 448 -98 41 16 76 40 121 84 58 56 1082 1374 1146
1474 69 108 77 271 20 386 -39 78 -1091 1442 -1170 1517 -40 39 -78 64 -118
79 -76 29 -190 35 -263 15z m199 -222 c46 -26 99 -90 602 -743 304 -393 558
-729 565 -747 8 -18 14 -51 14 -73 0 -22 -6 -55 -14 -73 -7 -18 -261 -354
-565 -747 -508 -659 -555 -717 -604 -743 -41 -23 -61 -28 -97 -25 -99 10 -80
-12 -668 749 -301 390 -557 728 -570 752 -34 62 -28 140 18 205 18 26 273 358
566 738 526 682 543 701 614 727 37 13 91 5 139 -20z"/>
<path d="M2560 4256 c0 -95 2 -106 18 -106 10 0 40 -11 68 -25 45 -23 91 -79
594 -730 300 -388 555 -724 568 -747 29 -54 29 -122 0 -176 -13 -23 -268 -359
-568 -747 -503 -651 -549 -707 -594 -730 -28 -14 -58 -25 -68 -25 -16 0 -18
-11 -18 -106 l0 -107 51 7 c83 11 155 44 213 97 75 68 1150 1464 1184 1537 24
50 27 69 27 162 0 93 -3 111 -27 162 -34 74 -1109 1469 -1184 1537 -58 53
-130 86 -213 97 l-51 7 0 -107z"/>
<path d="M3190 4256 l0 -103 31 -7 c83 -16 80 -14 655 -758 306 -396 562 -735
570 -754 18 -43 18 -105 0 -148 -8 -19 -264 -358 -570 -754 -575 -744 -572
-742 -655 -758 l-31 -7 0 -103 c0 -120 -4 -117 105 -88 71 18 126 49 176 97
68 66 1139 1466 1167 1524 24 52 27 70 27 163 0 97 -2 110 -32 170 -31 65
-1056 1404 -1149 1502 -56 60 -112 92 -189 112 -109 29 -105 32 -105 -88z"/>
</g>
</svg>
